<svg xmlns="http://www.w3.org/2000/svg" xmlns:xlink="http://www.w3.org/1999/xlink" width="1059" height="1059" viewBox="0 0 1059 1059">
  <defs>
    <filter id="Rectangle_1651" x="0" y="0" width="1059" height="1059" filterUnits="userSpaceOnUse">
      <feOffset dy="3" input="SourceAlpha"/>
      <feGaussianBlur stdDeviation="49.5" result="blur"/>
      <feFlood flood-opacity="0.063"/>
      <feComposite operator="in" in2="blur"/>
      <feComposite in="SourceGraphic"/>
    </filter>
  </defs>
  <g id="Group_175" data-name="Group 175" transform="translate(148.5 145.5)">
    <g id="Group_117" data-name="Group 117" transform="translate(-0.001)">
      <g transform="matrix(1, 0, 0, 1, -148.5, -145.5)" filter="url(#Rectangle_1651)">
        <rect id="Rectangle_1651-2" data-name="Rectangle 1651" width="762" height="762" transform="translate(148.5 145.5)" fill="#967737"/>
      </g>
    </g>
    <path id="Path_92" data-name="Path 92" d="M5625.113-10762.512c-13.932-1.547-25.408-6.992-33.18-15.754-7.646-8.613-11.408-20.051-10.885-33.07a112.6,112.6,0,0,1,6.74-33.145,94.994,94.994,0,0,1,5.938-13.434,125,125,0,0,0-3.811,23.1c-.795,11.785.029,28.207,8.525,39.488,6.729,8.941,17.281,13.473,31.377,13.473,1.551,0,3.158-.055,4.781-.16,28.447-1.891,62.3-10.32,92.885-23.121,13.064-5.477,24.357-11.273,32.656-16.781,8.348-5.527,12.932-10.27,13.248-13.711.354-3.687-.479-6.66-2.467-8.848-3.428-3.766-9.277-4.172-11.637-4.172-.406,0-.678.012-.752.02-.037,0-6.613.113-16.746.113-5.916,0-11.8-.039-17.492-.113-6.119-.086-10.67-1.77-13.506-5-4.682-5.316-3.727-13.605-3.211-18.062v-.031c.422-3.621,4.865-12.875,10.824-20.871a54.626,54.626,0,0,1,10.523-11.008c4.18-3.172,8.232-4.773,12.037-4.773.281,0,.564.008.848.023,8.277.531,20.453,8.57,30.3,20.012,10.7,12.434,16.3,25.836,15.355,36.785-1.023,11.863-1.639,19.027-5.609,25.48-3.865,6.277-10.873,12.078-25.121,22.688-6.354,4.738-15.2,9.691-26.264,14.719a336.936,336.936,0,0,1-34.492,13.234c-25.5,8.273-49.787,13.211-64.957,13.211A54.222,54.222,0,0,1,5625.113-10762.512Zm114.365-142.645c-2.826.164-9.119,4.75-14.643,10.656-4.074,4.359-11.246,13.184-13.469,23.266-1.559,7.07-1.117,11.988,1.342,15.051,2.7,3.363,7.5,3.789,11.379,3.789h33.449c.123.008,12.133,1,15.238,5.813a20.12,20.12,0,0,1,3.135,14.762c-.926,4.488-6.533,11.7-6.6,11.773a30.117,30.117,0,0,0,7.32-6.5,34.59,34.59,0,0,0,7.918-20.977c.715-17.664-7.041-34-21.838-46.016-12.074-9.8-16.986-11.664-21.834-11.664C5740.459-10905.2,5740-10905.187,5739.479-10905.156Zm213.635,75.145a50.137,50.137,0,0,1-23.711,13.816c-14.2,3.477-24.123-14.43-24.852-15.777.148.473-.244,3.262-20.139,14.047-22.3,12.094-35.334-14.133-35.334-14.133s-10.369,4.082-19,8.012-35.674,7.883-35.674,7.883a113.887,113.887,0,0,0,9.662-13.113,14.824,14.824,0,0,0,1.24-2.773c-.1,0,1.248-2.992,1.652-13.2-.014-.324.039-6.035,0-9.449-.1-9.273-5.83-19.914-10.609-27.2a127.252,127.252,0,0,0-10.436-13.707l-.018-.012a107.058,107.058,0,0,0,14.389,5.586,128.542,128.542,0,0,0,35.213,6.055c.441,0,.93.012,1.439.012,14,0,26.664-4.551,34.822-8.371a90.181,90.181,0,0,0,14.488-8.367,58.737,58.737,0,0,0-4.838,8.617c-2.027,4.469-4.1,10.84-2.471,15.773,1.053,3.168,3.508,5.414,7.309,6.664a13.614,13.614,0,0,0,4.211.625c4.3,0,9.66-1.668,15.92-4.949a119.548,119.548,0,0,0,16.65-10.895,216.858,216.858,0,0,0,18.422-15.84,51.807,51.807,0,0,0-3.412,8.516c-1.3,4.387-2.361,10.551-.049,15.035,1.705,3.309,5.012,5.3,9.832,5.918a18.408,18.408,0,0,0,2.291.141c10.3,0,20.486-8.723,27.215-16.047a116.367,116.367,0,0,0,12.264-16.035l.006-.012a52.323,52.323,0,0,0-3.035,11.387c-.752,5.52-.449,12.723,5.266,15.656a8.925,8.925,0,0,0,4.066.961c5.354,0,11.08-4.449,14.938-8.191a69.527,69.527,0,0,0,7.162-8.164l0-.02h-.012a38.636,38.636,0,0,1-8.994-9.086,44.272,44.272,0,0,1-6.066-11.754,48.837,48.837,0,0,1-2.479-16.926c.281-12.316,4.924-21.078,14.186-26.8,7.756-4.793,18.883-7.559,35.006-8.723,1.377-.1,2.777-.152,4.176-.152a69.828,69.828,0,0,1,18.963,2.785,94.038,94.038,0,0,1,15.754,6.129,92.661,92.661,0,0,1,14.74,8.918c0,.063-.252,1.535-11.652,1.535-6.762,0-16.076-.52-27.684-1.535-6.729-.594-12.9-.891-18.328-.891-10.951,0-19.254,1.207-24.664,3.6-4.219,1.859-6.7,4.43-7.377,7.645-.307,1.449.516,3.578,2.32,6.008,3.678,4.945,10.521,10.176,18.785,14.344a96.978,96.978,0,0,0,35.131,9.656c2.336.2,4.736.3,7.143.3,17.092,0,32.576-5.176,42.557-9.523a110.718,110.718,0,0,0,17.738-9.512l.008.023a40.47,40.47,0,0,1-1.355,11.457,46.69,46.69,0,0,1-4.408,11.105,47.413,47.413,0,0,1-9.316,11.8,54.919,54.919,0,0,1-13.408,8.984,75.035,75.035,0,0,1-13.43,4.9,83.368,83.368,0,0,1-11.488,2.18c2.775,14.4-.836,33.176-5.842,38.582-8.621,9.316-42.434-12.07-42.434-12.07s-14.926,21.242-39.27,31.453a32.4,32.4,0,0,1-12.6,2.6C5965.754-10814.539,5953.113-10830.012,5953.113-10830.012Zm-68.574-2.2c16.039-4.16,41.654-28.453,41.654-28.453s-14.143,22.77,1.73,27.258,45.887-27.258,45.887-27.258-16.9,18.98,11.385,24.148,55.543-54.164,80.729-56.234c9.363-.766,14.625,5.52,17.1,14.2,1.91-.258,4-.594,6.188-1.039,11.455-2.328,20.426-6.434,26.67-12.2,7.967-7.359,11.988-13.949,13.957-18.18a24.387,24.387,0,0,0,2.395-7.492l-.018.02a142.237,142.237,0,0,1-18.053,7.605,148.543,148.543,0,0,1-18.969,5.238,113.146,113.146,0,0,1-22.387,2.379c-2.594,0-5.154-.105-7.621-.32a79.821,79.821,0,0,1-32.9-10.418c-7.918-4.566-14.824-10.387-18.971-15.957-2.234-3-3.33-5.578-3.016-7.07,1.225-5.828,7.209-15.609,33.482-15.609,3.545,0,7.395.18,11.434.543,29.219,2.555,38.289,2.832,40.824,2.832.52,0,.732-.012.783-.012a97.628,97.628,0,0,0-13.891-6.684c-7.738-3.051-19.641-6.676-32.373-6.676-1.607,0-3.184.055-4.709.164-14.328,1.031-24.086,3.836-30.711,8.8-7.285,5.473-10.959,13.883-11.236,25.7a38.448,38.448,0,0,0,9.74,26.73,39.845,39.845,0,0,0,10.164,8.406c0,.012-.014.023-.037.051a123.862,123.862,0,0,1-10.215,9.957c-5.307,4.566-12.838,10-18.551,10a7.19,7.19,0,0,1-3.312-.742,12.974,12.974,0,0,1-5.484-5.246,17.056,17.056,0,0,1-1.977-6.375,25.277,25.277,0,0,1,.295-7.633c0,.008,0,.012-.012.02a77.379,77.379,0,0,1-9.832,11.938,51.427,51.427,0,0,1-10.613,8.234,26.366,26.366,0,0,1-12.9,3.742,20.813,20.813,0,0,1-2.6-.172c-5.732-.734-9.912-2.973-12.418-6.656-4.187-6.152-2.219-14.406-2.174-14.57a.329.329,0,0,1-.051.047,167.485,167.485,0,0,1-15.627,11.715,101.606,101.606,0,0,1-14.437,8.082c-5.5,2.438-10.3,3.676-14.26,3.676h-.023a15.042,15.042,0,0,1-4.705-.7c-4.039-1.328-6.791-3.711-8.193-7.09-1.766-4.277-1.035-9.41-.105-12.961a38.063,38.063,0,0,1,2.465-6.742v-.016l-.016.016a94.946,94.946,0,0,1-11.2,5.867c-6.115,2.852-15.266,5.5-28.111,6.379-.625,0-1.164-.012-1.658-.02a139.436,139.436,0,0,1-31.678-4.223,93.029,93.029,0,0,1-12.252-4.035c0,.008.018.016.023.027a108.519,108.519,0,0,1,7.033,9.859c3.51,5.352,8.4,15.988,8.494,24.668.053,4.785-.006,5.988,0,9.1a141.207,141.207,0,0,0,19.242-.234c13.459-1.035,40.707-13.113,40.707-13.113s-8.639,8.234-7.576,14.918S5868.5-10828.055,5884.539-10832.215Zm-88.547-88.734c-2.6-.09-25.365-13.562-25.645-17.008,0,0,14.311-19.7,16.076-20.254,1.48-.461,19.711,10.629,25.7,15.969,3.727-5.07,13.164-17.758,14.572-18.2,1.48-.469,19.711,10.625,25.707,15.961,3.719-5.066,13.158-17.754,14.57-18.2,1.766-.555,27.5,15.426,27.592,18.309s-15.422,19.043-18.021,18.949c-2.115-.074-17.613-9.023-23.439-14.2-3.668,5.441-14.682,16.516-16.832,16.441-2.125-.082-17.613-9.027-23.439-14.207-3.656,5.43-14.611,16.441-16.814,16.441Zm-96.209,0c-2.6-.09-25.365-13.562-25.645-17.008,0,0,14.311-19.7,16.076-20.254,1.48-.461,19.711,10.629,25.707,15.969,3.719-5.07,13.158-17.758,14.566-18.2,1.77-.562,27.5,15.422,27.6,18.3s-15.422,19.051-18.021,18.961c-2.123-.082-17.609-9.027-23.439-14.207-3.656,5.43-14.6,16.441-16.812,16.441Z" transform="translate(-5478.956 11243.214)" fill="#fff"/>
  </g>
</svg>
