<svg xmlns="http://www.w3.org/2000/svg" width="40" height="40" viewBox="0 0 40 40">
  <g id="Group_171" data-name="Group 171" transform="translate(-2440 -16904)">
    <rect id="Rectangle_1692" data-name="Rectangle 1692" width="40" height="40" transform="translate(2440 16904)" fill="none"/>
    <g id="_889102" data-name="889102" transform="translate(2444.582 16908.467)">
      <path id="Subtraction_33" data-name="Subtraction 33" d="M-1525.528-16878.979h0l-13.775,0a3.283,3.283,0,0,1-3.276-3.281v-24.926a3.281,3.281,0,0,1,3.276-3.279h24.925a3.283,3.283,0,0,1,3.281,3.279v24.926a3.285,3.285,0,0,1-3.281,3.281h-5.9v-11.809H-1517a.656.656,0,0,0,.624-.449l1.311-3.934a.659.659,0,0,0-.416-.832.656.656,0,0,0-.208-.033h-4.592v-3.281a1.97,1.97,0,0,1,1.969-1.965h2.623a.659.659,0,0,0,.658-.658v-3.934a.659.659,0,0,0-.658-.658h-2.623a7.223,7.223,0,0,0-7.215,7.215v3.281h-3.281a.655.655,0,0,0-.654.656v3.936a.655.655,0,0,0,.654.656h3.281v11.811Z" transform="translate(1542.582 16910.467)" fill="#ea9215"/>
    </g>
  </g>
</svg>
