<svg xmlns="http://www.w3.org/2000/svg" width="40" height="40" viewBox="0 0 40 40">
  <g id="Group_167" data-name="Group 167" transform="translate(-2353 -16904)">
    <rect id="Rectangle_1690" data-name="Rectangle 1690" width="40" height="40" transform="translate(2353 16904)" fill="none"/>
    <g id="_49026" data-name="49026" transform="translate(2359.016 16911.338)">
      <g id="Group_166" data-name="Group 166" transform="translate(1.341)">
        <path id="Path_87" data-name="Path 87" d="M14.67,14.84l-1.219-.947a1.871,1.871,0,0,1-.879-1.458,2.382,2.382,0,0,1,.948-1.662c1.419-1.118,2.839-2.307,2.839-4.814a5.714,5.714,0,0,0-2.4-4.577h2.1L18.255,0H11.591A10.315,10.315,0,0,0,5.2,2.026,6.1,6.1,0,0,0,3.033,6.568a5.355,5.355,0,0,0,5.615,5.324c.339,0,.709-.033,1.081-.068a3.069,3.069,0,0,0-.337,1.322,3.55,3.55,0,0,0,1.015,2.3c-1.523.1-4.366.274-6.462,1.562a4.881,4.881,0,0,0-2.6,4.135c0,2.51,2.366,4.848,7.272,4.848,5.818,0,8.9-3.219,8.9-6.406C17.511,17.247,16.159,16.094,14.67,14.84Zm-4.431-3.9c-2.911,0-4.229-3.762-4.229-6.032A3.916,3.916,0,0,1,6.753,2.4,3.161,3.161,0,0,1,9.123,1.28c2.806,0,4.261,3.8,4.261,6.238a3.436,3.436,0,0,1-.845,2.476A3.455,3.455,0,0,1,10.239,10.942Zm.033,13.632c-3.619,0-5.953-1.731-5.953-4.139s2.164-3.221,2.908-3.49a13.4,13.4,0,0,1,3.552-.544,5.454,5.454,0,0,1,.777.034c2.573,1.831,3.69,2.744,3.69,4.477C15.246,23.01,13.52,24.574,10.272,24.574Z" transform="translate(-1.341)" fill="#ea9215"/>
        <path id="Path_88" data-name="Path 88" d="M68.927,31.283V27.894H67.253v3.389H63.869v1.692h3.384v3.411h1.674V32.976h3.4V31.283Z" transform="translate(-47.056 -20.393)" fill="#ea9215"/>
      </g>
    </g>
  </g>
</svg>
