<svg xmlns="http://www.w3.org/2000/svg" width="40" height="40" viewBox="0 0 40 40">
  <g id="Group_169" data-name="Group 169" transform="translate(-2396 -16904)">
    <rect id="Rectangle_1691" data-name="Rectangle 1691" width="40" height="40" transform="translate(2396 16904)" fill="none"/>
    <g id="_1384060" data-name="1384060" transform="translate(2397.278 16911.564)">
      <path id="Subtraction_34" data-name="Subtraction 34" d="M-1476.878-16887.795c-.115,0-11.524-.01-14.4-.789a4.62,4.62,0,0,1-3.243-3.248c-.751-2.811-.76-8.789-.76-8.85s.009-6.006.76-8.852a4.7,4.7,0,0,1,3.243-3.271c2.846-.75,14.283-.76,14.4-.76s11.558.01,14.4.789a4.612,4.612,0,0,1,3.243,3.242c.772,2.828.756,8.82.756,8.881s-.009,6.01-.756,8.855a4.615,4.615,0,0,1-3.243,3.242C-1465.322-16887.8-1476.763-16887.795-1476.878-16887.795Zm-3.667-18.4v11.031l9.58-5.514-9.58-5.518Z" transform="translate(1495.278 16913.564)" fill="#ea9215"/>
    </g>
  </g>
</svg>
