<svg xmlns="http://www.w3.org/2000/svg" width="40" height="38.02" viewBox="0 0 40 38.02">
  <g id="_846551" data-name="846551" transform="translate(0 -12.676)">
    <g id="Group_5560" data-name="Group 5560" transform="translate(0 12.675)">
      <g id="Group_5559" data-name="Group 5559" transform="translate(0 0)">
        <path id="Path_10276" data-name="Path 10276" d="M39.328,29.567,21.381,13.214a2.042,2.042,0,0,0-2.763,0L.672,29.567a2.051,2.051,0,0,0,1.382,3.567H4.92V49.519A1.176,1.176,0,0,0,6.1,50.695h9.837a1.176,1.176,0,0,0,1.176-1.176V39.57h5.781v9.948a1.176,1.176,0,0,0,1.176,1.176H33.9a1.176,1.176,0,0,0,1.176-1.176V33.134h2.867a2.051,2.051,0,0,0,1.381-3.567Z" transform="translate(0 -12.676)" fill="#ffc000"/>
      </g>
    </g>
    <g id="Group_5562" data-name="Group 5562" transform="translate(27.705 14.875)">
      <g id="Group_5561" data-name="Group 5561">
        <path id="Path_10277" data-name="Path 10277" d="M351.372,42.73h-7.4l8.5,7.729V43.832A1.1,1.1,0,0,0,351.372,42.73Z" transform="translate(-343.973 -42.73)" fill="#ffc000"/>
      </g>
    </g>
  </g>
</svg>
