<svg xmlns="http://www.w3.org/2000/svg" width="40" height="30" viewBox="0 0 40 30">
  <g id="_482947-1" data-name="482947-1" transform="translate(0 -64)">
    <g id="Group_5583" data-name="Group 5583" transform="translate(0 64)">
      <g id="Group_5582" data-name="Group 5582">
        <path id="Path_10279" data-name="Path 10279" d="M7.209,66.434c5.49,4.649,15.123,12.829,17.954,15.379a1.673,1.673,0,0,0,2.419,0c2.834-2.553,12.467-10.733,17.957-15.382a.833.833,0,0,0,.117-1.15A3.309,3.309,0,0,0,43.04,64H9.707a3.309,3.309,0,0,0-2.616,1.284A.833.833,0,0,0,7.209,66.434Z" transform="translate(-6.374 -64)" fill="#fc7f0c"/>
        <path id="Path_10280" data-name="Path 10280" d="M39.517,126.489a.83.83,0,0,0-.889.12c-6.088,5.161-13.858,11.777-16.3,13.979a3.375,3.375,0,0,1-4.652,0c-2.606-2.348-11.331-9.766-16.3-13.978A.833.833,0,0,0,0,127.245V148.2a3.337,3.337,0,0,0,3.333,3.333H36.667A3.337,3.337,0,0,0,40,148.2V127.245A.833.833,0,0,0,39.517,126.489Z" transform="translate(0 -121.536)" fill="#fc7f0c"/>
      </g>
    </g>
  </g>
</svg>
