<svg xmlns="http://www.w3.org/2000/svg" width="40" height="40.084" viewBox="0 0 40 40.084">
  <g id="_597177" data-name="597177" transform="translate(-0.539)">
    <g id="Group_5581" data-name="Group 5581" transform="translate(0.539 0)">
      <path id="Path_10278" data-name="Path 10278" d="M39.49,29.418,33.9,23.824a3.721,3.721,0,0,0-6.193,1.4,3.807,3.807,0,0,1-4.4,2.4c-4-1-9.39-6.193-10.389-10.389a3.621,3.621,0,0,1,2.4-4.4,3.721,3.721,0,0,0,1.4-6.193L11.121,1.049a3.99,3.99,0,0,0-5.394,0l-3.8,3.8c-3.8,4,.4,14.584,9.789,23.974S31.7,42.6,35.694,38.608l3.8-3.8A3.99,3.99,0,0,0,39.49,29.418Z" transform="translate(-0.539 0)" fill="#e84b3a"/>
    </g>
  </g>
</svg>
