<svg xmlns="http://www.w3.org/2000/svg" width="40" height="40.137" viewBox="0 0 40 40.137">
  <g id="_2948334" data-name="2948334" transform="translate(-0.881)">
    <path id="Path_10281" data-name="Path 10281" d="M167.453,272H152.645a.375.375,0,0,0-.375.384c.045,1.736.162,3.394.341,4.962a.375.375,0,0,0,.464.322,28.455,28.455,0,0,1,13.949,0,.375.375,0,0,0,.464-.322c.179-1.568.3-3.226.341-4.962A.375.375,0,0,0,167.453,272Z" transform="translate(-139.168 -250.516)" fill="#92278f"/>
    <path id="Path_10282" data-name="Path 10282" d="M167.487,164.6a.375.375,0,0,0-.464-.322,28.454,28.454,0,0,1-13.949,0,.375.375,0,0,0-.464.322c-.179,1.568-.3,3.226-.341,4.962a.375.375,0,0,0,.375.384h14.809a.375.375,0,0,0,.375-.384C167.784,167.83,167.666,166.171,167.487,164.6Z" transform="translate(-139.168 -151.295)" fill="#92278f"/>
    <path id="Path_10283" data-name="Path 10283" d="M176.877,9.489A29.97,29.97,0,0,0,173.987.567a.374.374,0,0,0-.253-.185,19.432,19.432,0,0,0-7.662,0,.373.373,0,0,0-.253.185,29.967,29.967,0,0,0-2.891,8.922.374.374,0,0,0,.269.427,25.749,25.749,0,0,0,6.705.884,25.746,25.746,0,0,0,6.705-.884A.374.374,0,0,0,176.877,9.489Z" transform="translate(-149.022)" fill="#92278f"/>
    <path id="Path_10284" data-name="Path 10284" d="M355.88,22.6a.375.375,0,0,0-.5.479l.006.017a37.389,37.389,0,0,1,1.767,6.382.375.375,0,0,0,.512.276,25.761,25.761,0,0,0,4.209-2.2.376.376,0,0,0,.072-.571q-.229-.246-.467-.484A19.192,19.192,0,0,0,355.88,22.6Z" transform="translate(-326.153 -20.876)" fill="#92278f"/>
    <path id="Path_10285" data-name="Path 10285" d="M386.747,122.629h8.2a.376.376,0,0,0,.374-.407,19.012,19.012,0,0,0-3.083-8.94.377.377,0,0,0-.523-.106,28.1,28.1,0,0,1-4.549,2.437q-.491.208-.988.4a.375.375,0,0,0-.24.4c.236,1.882.382,3.846.432,5.856A.375.375,0,0,0,386.747,122.629Z" transform="translate(-354.445 -104.118)" fill="#92278f"/>
    <path id="Path_10286" data-name="Path 10286" d="M162.928,369.311a29.969,29.969,0,0,0,2.891,8.922.374.374,0,0,0,.253.185,19.432,19.432,0,0,0,7.662,0,.374.374,0,0,0,.253-.185,29.968,29.968,0,0,0,2.891-8.922.374.374,0,0,0-.269-.427,25.877,25.877,0,0,0-13.411,0A.374.374,0,0,0,162.928,369.311Z" transform="translate(-149.022 -338.662)" fill="#92278f"/>
    <path id="Path_10287" data-name="Path 10287" d="M9.037,279.017q.491-.208.988-.4a.375.375,0,0,0,.24-.4c-.236-1.882-.382-3.846-.432-5.856A.375.375,0,0,0,9.459,272h-8.2a.376.376,0,0,0-.374.407,19.012,19.012,0,0,0,3.083,8.94.377.377,0,0,0,.523.106A28.1,28.1,0,0,1,9.037,279.017Z" transform="translate(0 -250.373)" fill="#92278f"/>
    <path id="Path_10288" data-name="Path 10288" d="M361.871,395.441a25.755,25.755,0,0,0-4.209-2.2.375.375,0,0,0-.512.276,37.381,37.381,0,0,1-1.767,6.382l-.006.017a.375.375,0,0,0,.5.479,19.2,19.2,0,0,0,5.6-3.9q.238-.238.467-.484A.376.376,0,0,0,361.871,395.441Z" transform="translate(-326.154 -361.982)" fill="#92278f"/>
    <path id="Path_10289" data-name="Path 10289" d="M386.373,272.366c-.05,2.01-.2,3.974-.432,5.856a.375.375,0,0,0,.24.4q.5.188.988.4a28.113,28.113,0,0,1,4.549,2.437.377.377,0,0,0,.523-.106,19.012,19.012,0,0,0,3.083-8.94.376.376,0,0,0-.374-.407h-8.2A.375.375,0,0,0,386.373,272.366Z" transform="translate(-354.445 -250.371)" fill="#92278f"/>
    <path id="Path_10290" data-name="Path 10290" d="M67.593,27.554a25.755,25.755,0,0,0,4.209,2.2.375.375,0,0,0,.512-.276A37.385,37.385,0,0,1,74.08,23.1l.006-.017a.375.375,0,0,0-.5-.479,19.2,19.2,0,0,0-5.6,3.9q-.238.239-.467.484A.376.376,0,0,0,67.593,27.554Z" transform="translate(-61.55 -20.875)" fill="#92278f"/>
    <path id="Path_10291" data-name="Path 10291" d="M9.826,122.629a59.2,59.2,0,0,1,.44-6.223.375.375,0,0,0-.24-.4q-.5-.188-.988-.4a28.114,28.114,0,0,1-4.549-2.437.377.377,0,0,0-.523.106,19.012,19.012,0,0,0-3.083,8.94.376.376,0,0,0,.374.407Z" transform="translate(0 -104.118)" fill="#92278f"/>
    <path id="Path_10292" data-name="Path 10292" d="M73.584,400.391a.375.375,0,0,0,.5-.479l-.006-.017a37.394,37.394,0,0,1-1.767-6.382.375.375,0,0,0-.512-.276,25.76,25.76,0,0,0-4.209,2.2.376.376,0,0,0-.072.571q.229.246.467.484A19.192,19.192,0,0,0,73.584,400.391Z" transform="translate(-61.551 -361.981)" fill="#92278f"/>
  </g>
</svg>
