<svg id="Group_165" data-name="Group 165" xmlns="http://www.w3.org/2000/svg" width="1920" height="156.1" viewBox="0 0 1920 156.1">
  <path id="Path_79" data-name="Path 79" d="M1920-5.931s-52.963,3.878-102.562,28.318c-21.614,10.651-91.225,43.987-126.734,42.449-147.159-9.6-79.2-73.654-244.188-68.578S1284.117,97.49,1107.584,97.49,1003.169,35.151,751.219,35.151,566.309,97.49,378.5,97.49c-36.124-3.5-163.06-29.341-228.541-58.014C63.076,1.428,0-5.931,0-5.931H1920Z" transform="translate(0 5.931)" opacity="0.42"/>
  <path id="Intersection_15" data-name="Intersection 15" d="M1920,98.949l-.061,0h.046Zm-1920,0,.024,0H.776l-.388,0Zm.776,0c7.849-.05,74.047-1.221,146.276-26.007,35.708-12.254,60.245-29.645,90.2-44.17,136.779,11.356,74.3,72.972,236.237,67.989,33.21-1.022,59.629-5.733,82.087-12.609,26.114,9.838,62.325,15.371,118.684,11.941C787.34,89.21,840.917,45.253,910.458,6.178c62.964,17.806,72.574,51.69,258.322,51.69,210.676,0,198.307-43.587,298.405-57.868,68.67,25.7,122.713,52.988,162.408,65.235,89.6,27.646,286.368,33.594,290.346,33.712Z" transform="translate(1920 98.949) rotate(180)"/>
  <path id="Path_80" data-name="Path 80" d="M1920-48.1s-70.1-.4-147.052,26.01-102,76.668-241.213,70.7-86.64-105.982-285.99-93.851S1031.961,94.244,789.023,106.95,380.922,13.545,290.407-14.384,0-48.1,0-48.1v0H1920Z" transform="translate(0 48.098)" opacity="0.42"/>
</svg>
