<svg xmlns="http://www.w3.org/2000/svg" width="50" height="50" viewBox="0 0 50 50">
  <g id="Group_2521" data-name="Group 2521" transform="translate(12348 -9406)">
    <rect id="Rectangle_1744" data-name="Rectangle 1744" width="50" height="50" transform="translate(-12348 9406)" fill="none"/>
    <g id="_88042" data-name="88042" transform="translate(-12343.802 9415.756)">
      <path id="Path_9304" data-name="Path 9304" d="M35.683,24.61H5.162A5.168,5.168,0,0,0,0,29.772V49.366a5.168,5.168,0,0,0,5.162,5.162H35.683a5.168,5.168,0,0,0,5.162-5.162V29.772A5.168,5.168,0,0,0,35.683,24.61Zm-.806,3.33L20.422,39.105,5.968,27.94ZM35.683,51.2H5.162A1.834,1.834,0,0,1,3.33,49.367V30.109L19.4,42.527a1.665,1.665,0,0,0,2.036,0L37.515,30.109V49.366A1.834,1.834,0,0,1,35.683,51.2Z" transform="translate(0 -24.61)" fill="#333"/>
    </g>
  </g>
</svg>
