<svg xmlns="http://www.w3.org/2000/svg" width="248.627" height="90.635" viewBox="0 0 248.627 90.635">
  <path id="Path_48" data-name="Path 48" d="M5600.716-10874.5c-6.227-.69-11.356-3.126-14.83-7.042a20.5,20.5,0,0,1-4.865-14.78,50.3,50.3,0,0,1,3.013-14.813,42.7,42.7,0,0,1,2.653-6,56.092,56.092,0,0,0-1.7,10.325c-.355,5.268.014,12.606,3.811,17.65,3.008,4,7.725,6.021,14.023,6.021.693,0,1.412-.025,2.138-.074,12.714-.845,27.846-4.612,41.515-10.333a90.665,90.665,0,0,0,14.6-7.5c3.731-2.472,5.779-4.591,5.922-6.129a4.93,4.93,0,0,0-1.1-3.954c-1.533-1.685-4.147-1.866-5.2-1.866-.182,0-.3.006-.336.009-.017,0-2.956.052-7.485.052-2.645,0-5.275-.019-7.818-.052-2.735-.039-4.769-.79-6.037-2.231-2.092-2.378-1.665-6.082-1.434-8.074v-.014c.188-1.618,2.174-5.754,4.838-9.329a24.424,24.424,0,0,1,4.7-4.92,9.075,9.075,0,0,1,5.38-2.133c.126,0,.253,0,.379.011,3.7.236,9.142,3.831,13.542,8.943,4.783,5.559,7.284,11.55,6.863,16.442-.457,5.3-.732,8.5-2.507,11.388-1.728,2.807-4.859,5.4-11.228,10.141a65.248,65.248,0,0,1-11.739,6.579,150.517,150.517,0,0,1-15.416,5.914c-11.4,3.7-22.251,5.905-29.032,5.905A24.085,24.085,0,0,1,5600.716-10874.5Zm51.116-63.755c-1.263.074-4.075,2.124-6.544,4.764-1.821,1.948-5.027,5.892-6.021,10.4-.7,3.159-.5,5.358.6,6.726,1.205,1.5,3.352,1.7,5.085,1.7H5659.9c.055,0,5.424.446,6.811,2.6a8.985,8.985,0,0,1,1.4,6.6c-.413,2.006-2.919,5.231-2.947,5.264a13.467,13.467,0,0,0,3.272-2.905,15.464,15.464,0,0,0,3.539-9.376c.319-7.895-3.148-15.2-9.761-20.567-5.4-4.381-7.592-5.212-9.758-5.212C5652.269-10938.272,5652.063-10938.267,5651.832-10938.253Zm95.484,33.586a22.415,22.415,0,0,1-10.6,6.176c-6.348,1.552-10.782-6.448-11.106-7.053.065.212-.109,1.458-9,6.279-9.967,5.4-15.793-6.315-15.793-6.315s-4.634,1.824-8.492,3.58-15.944,3.522-15.944,3.522a50.97,50.97,0,0,0,4.318-5.859,6.73,6.73,0,0,0,.555-1.24,23.2,23.2,0,0,0,.738-5.9c-.006-.146.017-2.7,0-4.225-.047-4.146-2.606-8.9-4.742-12.157a56.5,56.5,0,0,0-4.665-6.126l-.008-.008a47.523,47.523,0,0,0,6.431,2.5,57.356,57.356,0,0,0,15.738,2.705c.2,0,.416.006.644.006a37.682,37.682,0,0,0,15.564-3.74,40.5,40.5,0,0,0,6.475-3.739,26.189,26.189,0,0,0-2.163,3.85c-.906,2-1.833,4.846-1.1,7.051a4.717,4.717,0,0,0,3.266,2.978,6.085,6.085,0,0,0,1.882.28,16.181,16.181,0,0,0,7.116-2.213,53.716,53.716,0,0,0,7.441-4.867,96.955,96.955,0,0,0,8.233-7.081,23.35,23.35,0,0,0-1.524,3.806c-.581,1.96-1.057,4.714-.022,6.721a5.32,5.32,0,0,0,4.395,2.645,8.4,8.4,0,0,0,1.023.063c4.6,0,9.156-3.9,12.164-7.171a52,52,0,0,0,5.481-7.169l0,0a23.369,23.369,0,0,0-1.357,5.091c-.335,2.468-.2,5.686,2.353,7a3.956,3.956,0,0,0,1.819.432c2.392,0,4.951-1.989,6.676-3.66a31.01,31.01,0,0,0,3.2-3.651l0-.008h-.006a17.3,17.3,0,0,1-4.02-4.06,19.8,19.8,0,0,1-2.711-5.256,21.817,21.817,0,0,1-1.109-7.564c.126-5.5,2.2-9.42,6.34-11.977,3.467-2.144,8.44-3.382,15.647-3.9.614-.044,1.241-.068,1.866-.068a31.168,31.168,0,0,1,8.476,1.246,41.919,41.919,0,0,1,7.042,2.738,41.654,41.654,0,0,1,6.588,3.984c0,.028-.113.686-5.209.686-3.021,0-7.185-.231-12.373-.686-3.008-.264-5.765-.4-8.192-.4-4.9,0-8.605.542-11.024,1.609-1.885.831-2.994,1.979-3.3,3.415a3.82,3.82,0,0,0,1.038,2.687,24.479,24.479,0,0,0,8.4,6.411,43.324,43.324,0,0,0,15.7,4.315c1.043.091,2.116.135,3.192.135a48.913,48.913,0,0,0,19.021-4.255,49.541,49.541,0,0,0,7.928-4.254l0,.011a18.081,18.081,0,0,1-.605,5.121,20.89,20.89,0,0,1-1.97,4.965,21.19,21.19,0,0,1-4.164,5.272,24.559,24.559,0,0,1-5.994,4.015,33.452,33.452,0,0,1-6,2.19,37.449,37.449,0,0,1-5.136.975c1.241,6.435-.373,14.827-2.61,17.243-3.853,4.163-18.966-5.4-18.966-5.4s-6.671,9.5-17.551,14.059a14.442,14.442,0,0,1-5.631,1.164C5752.966-10897.75,5747.315-10904.667,5747.315-10904.667Zm-30.648-.982c7.169-1.859,18.617-12.719,18.617-12.719s-6.321,10.176.773,12.183,20.51-12.183,20.51-12.183-7.557,8.481,5.088,10.793,24.825-24.208,36.083-25.133c4.185-.344,6.535,2.465,7.641,6.345.854-.114,1.786-.266,2.764-.464,5.121-1.04,9.13-2.876,11.921-5.454a26.594,26.594,0,0,0,6.238-8.124,10.911,10.911,0,0,0,1.071-3.349l-.008.008a63.978,63.978,0,0,1-8.068,3.4,66.511,66.511,0,0,1-8.479,2.34,50.446,50.446,0,0,1-10.006,1.064c-1.159,0-2.3-.047-3.407-.143a35.666,35.666,0,0,1-14.706-4.656,28.78,28.78,0,0,1-8.479-7.133c-1-1.341-1.489-2.493-1.348-3.159.547-2.606,3.222-6.977,14.964-6.977,1.585,0,3.305.08,5.11.24,13.06,1.145,17.114,1.269,18.248,1.269.231,0,.327-.006.35-.006a43.623,43.623,0,0,0-6.208-2.988,40.716,40.716,0,0,0-14.469-2.983c-.718,0-1.423.024-2.1.074-6.4.46-10.765,1.712-13.727,3.933-3.255,2.446-4.9,6.205-5.022,11.486a17.188,17.188,0,0,0,4.354,11.948,17.8,17.8,0,0,0,4.543,3.757s-.006.011-.017.021a55.119,55.119,0,0,1-4.565,4.45c-2.372,2.042-5.738,4.472-8.292,4.472a3.2,3.2,0,0,1-1.48-.333,5.793,5.793,0,0,1-2.452-2.345,7.621,7.621,0,0,1-.883-2.851,11.3,11.3,0,0,1,.132-3.41.014.014,0,0,1-.005.009,34.573,34.573,0,0,1-4.395,5.336,22.878,22.878,0,0,1-4.744,3.679,11.773,11.773,0,0,1-5.765,1.673,9.7,9.7,0,0,1-1.164-.074,7.491,7.491,0,0,1-5.551-2.978c-1.871-2.749-.991-6.439-.971-6.511a.2.2,0,0,1-.022.02,75.02,75.02,0,0,1-6.984,5.236,45.4,45.4,0,0,1-6.453,3.613,16.327,16.327,0,0,1-6.373,1.644h-.011a6.768,6.768,0,0,1-2.1-.312,5.609,5.609,0,0,1-3.663-3.17,9.513,9.513,0,0,1-.047-5.793,17.138,17.138,0,0,1,1.1-3.013v-.006l-.006.006a42.563,42.563,0,0,1-5.008,2.621,35.657,35.657,0,0,1-12.564,2.853c-.278,0-.52,0-.74-.008a62.338,62.338,0,0,1-14.159-1.889,41.657,41.657,0,0,1-5.476-1.8s.008.006.011.011a48.83,48.83,0,0,1,3.144,4.407c1.568,2.392,3.752,7.147,3.8,11.025.024,2.14,0,2.677,0,4.068a62.983,62.983,0,0,0,8.6-.105c6.015-.462,18.195-5.861,18.195-5.861s-3.861,3.681-3.387,6.668S5709.5-10903.79,5716.667-10905.649Zm-39.576-39.662c-1.161-.041-11.337-6.062-11.461-7.6,0,0,6.4-8.8,7.185-9.054.661-.206,8.809,4.75,11.486,7.136,1.665-2.263,5.883-7.937,6.514-8.135.661-.209,8.809,4.75,11.489,7.136,1.662-2.265,5.881-7.937,6.511-8.135.79-.25,12.292,6.894,12.333,8.182s-6.893,8.514-8.055,8.47c-.946-.033-7.873-4.034-10.476-6.346-1.64,2.433-6.563,7.381-7.523,7.348s-7.873-4.034-10.477-6.349c-1.634,2.425-6.53,7.348-7.515,7.348Zm-43,0c-1.161-.041-11.337-6.062-11.461-7.6,0,0,6.4-8.8,7.185-9.054.661-.206,8.809,4.75,11.489,7.136,1.662-2.263,5.88-7.937,6.511-8.135.79-.25,12.292,6.894,12.334,8.182s-6.894,8.514-8.055,8.473c-.95-.036-7.871-4.034-10.477-6.349-1.634,2.425-6.527,7.348-7.515,7.348Z" transform="translate(-5581 10965.001)" fill="#fff"/>
</svg>
