<svg xmlns="http://www.w3.org/2000/svg" width="1920" height="156.1" viewBox="0 0 1920 156.1">
  <g id="Group_164" data-name="Group 164" transform="translate(7738 -17683.32)">
    <path id="Path_79" data-name="Path 79" d="M0,97.49s52.963-3.878,102.562-28.318C124.175,58.521,193.787,25.185,229.3,26.723c147.159,9.6,79.2,73.655,244.188,68.578S635.883-5.931,812.416-5.931s104.416,62.339,356.365,62.339S1353.691-5.931,1541.5-5.931c36.124,3.5,163.06,29.341,228.541,58.015C1856.924,90.132,1920,97.49,1920,97.49H0Z" transform="translate(-7738 17741.93)" opacity="0.42"/>
    <path id="Intersection_15" data-name="Intersection 15" d="M1920,156.1l-.061,0h.046ZM0,156.1l.024,0H.776l-.388,0Zm.776,0c7.849-.05,74.047-1.221,146.276-26.008,35.708-12.254,60.245-29.645,90.2-44.17,136.779,11.356,74.3,72.973,236.237,67.99,33.21-1.022,59.629-5.734,82.087-12.609,26.114,9.838,62.324,15.371,118.684,11.941,113.084-6.882,166.661-50.838,236.2-89.914,62.964,17.806,72.575,51.69,258.323,51.69,210.676,0,198.309-43.587,298.406-57.868,68.67,25.7,122.712,52.987,162.406,65.235,89.6,27.646,286.368,33.594,290.346,33.712Z" transform="translate(-7738 17683.32)"/>
    <path id="Path_80" data-name="Path 80" d="M0,108s70.1.4,147.052-26.01,102-76.668,241.213-70.7,86.64,105.982,285.99,93.852S888.039-34.34,1130.977-47.046s408.1,93.406,498.616,121.334S1920,108,1920,108v0H0Z" transform="translate(-7738 17731.418)" opacity="0.42"/>
  </g>
</svg>
