<svg xmlns="http://www.w3.org/2000/svg" width="50" height="50" viewBox="0 0 50 50">
  <g id="Group_2522" data-name="Group 2522" transform="translate(12348 -9351)">
    <rect id="Rectangle_1743" data-name="Rectangle 1743" width="50" height="50" transform="translate(-12348 9351)" fill="none"/>
    <g id="_151769" data-name="151769" transform="translate(-12341.219 9353.45)">
      <path id="Path_9309" data-name="Path 9309" d="M31.485.007V0L31.34,0,31.2,0V.007A17.917,17.917,0,0,0,13.565,17.92c0,13.206,15.505,25.742,17.775,27.523,2.27-1.781,17.775-14.317,17.775-27.523A17.916,17.916,0,0,0,31.485.007Zm0,25.621a9.249,9.249,0,1,1,9.249-9.248A9.248,9.248,0,0,1,31.485,25.628Z" transform="translate(-13.565)" fill="#333"/>
    </g>
  </g>
</svg>
