<svg xmlns="http://www.w3.org/2000/svg" width="50" height="50" viewBox="0 0 50 50">
  <g id="Group_2519" data-name="Group 2519" transform="translate(12348 -9517)">
    <rect id="Rectangle_1746" data-name="Rectangle 1746" width="50" height="50" transform="translate(-12348 9517)" fill="none"/>
    <g id="_566030" data-name="566030" transform="translate(-12341.474 9523.285)">
      <g id="Group_2518" data-name="Group 2518">
        <path id="Path_9308" data-name="Path 9308" d="M2.04,25.5a23.22,23.22,0,0,0,7.282-1.163,2.046,2.046,0,0,1,2.07.5l4.487,4.5A30.718,30.718,0,0,0,29.321,15.9l-4.487-4.508a2.046,2.046,0,0,1-.5-2.07A23.22,23.22,0,0,0,25.5,2.04,2.033,2.033,0,0,1,27.536,0h7.139a2.039,2.039,0,0,1,2.04,2.04A34.672,34.672,0,0,1,2.04,36.715,2.033,2.033,0,0,1,0,34.675V27.536A2.033,2.033,0,0,1,2.04,25.5Z" fill="#333"/>
      </g>
    </g>
  </g>
</svg>
