<svg xmlns="http://www.w3.org/2000/svg" width="50" height="50" viewBox="0 0 50 50">
  <g id="Group_2520" data-name="Group 2520" transform="translate(12348 -9461)">
    <rect id="Rectangle_1745" data-name="Rectangle 1745" width="50" height="50" transform="translate(-12348 9461)" fill="none"/>
    <g id="_1198" data-name="1198" transform="translate(-12343.802 9465.097)">
      <path id="Path_9305" data-name="Path 9305" d="M12.993,11.424l-2.682,6.089a.445.445,0,0,1-.414.248H8.524a.444.444,0,0,1-.413-.248L6.838,14.607c-.124-.287-.237-.561-.343-.833-.118.3-.239.579-.359.846l-1.343,2.9a.447.447,0,0,1-.411.24H3.009a.444.444,0,0,1-.417-.255L.082,11.416a.351.351,0,0,1,.055-.356A.462.462,0,0,1,.5,10.894H2.045a.442.442,0,0,1,.424.272l1.1,3.094c.092.261.177.508.256.743q.145-.353.313-.746L5.5,11.143a.447.447,0,0,1,.413-.25H7.186a.448.448,0,0,1,.416.253l1.286,3.046c.116.274.219.53.314.772.079-.229.171-.477.276-.749l1.188-3.059a.443.443,0,0,1,.419-.264h1.492a.467.467,0,0,1,.366.168A.354.354,0,0,1,12.993,11.424Zm14.379,0L24.69,17.513a.444.444,0,0,1-.413.248H22.9a.445.445,0,0,1-.413-.248l-1.272-2.906c-.126-.287-.239-.561-.345-.833-.118.3-.239.579-.359.846l-1.343,2.9a.445.445,0,0,1-.411.24H17.385a.446.446,0,0,1-.417-.255l-2.509-6.09a.351.351,0,0,1,.055-.356.469.469,0,0,1,.363-.166h1.546a.442.442,0,0,1,.424.272l1.1,3.094c.092.261.177.508.259.743q.143-.353.309-.746l1.359-3.114a.443.443,0,0,1,.413-.25h1.276a.446.446,0,0,1,.416.253l1.288,3.046c.114.274.218.53.311.772.082-.229.171-.477.277-.749l1.188-3.059a.446.446,0,0,1,.421-.264h1.492a.46.46,0,0,1,.366.168A.351.351,0,0,1,27.372,11.424Zm14.378,0-2.68,6.089a.447.447,0,0,1-.414.248H37.281a.444.444,0,0,1-.413-.248L35.6,14.607c-.126-.287-.239-.561-.345-.833-.118.3-.24.579-.361.846l-1.343,2.9a.447.447,0,0,1-.411.24H31.764a.446.446,0,0,1-.419-.255l-2.509-6.09a.354.354,0,0,1,.053-.356.465.465,0,0,1,.364-.166H30.8a.439.439,0,0,1,.422.272l1.1,3.094c.092.261.177.508.258.743q.143-.353.309-.746l1.359-3.114a.447.447,0,0,1,.414-.25H35.94a.446.446,0,0,1,.416.253l1.286,3.046c.116.274.221.53.316.772.079-.229.171-.477.276-.749l1.189-3.059a.44.44,0,0,1,.419-.264h1.492a.462.462,0,0,1,.366.168A.361.361,0,0,1,41.75,11.424Z" transform="translate(-0.056 6.662)" fill="#333"/>
      <g id="Group_2517" data-name="Group 2517" transform="translate(0.858)">
        <path id="Path_9306" data-name="Path 9306" d="M4.008,14.5a17.8,17.8,0,0,1,1.7-3.283,1.551,1.551,0,0,0,.3.06H9.04A30.1,30.1,0,0,0,8.25,14.5h3.312a25.893,25.893,0,0,1,.906-3.223H28.562a25.893,25.893,0,0,1,.906,3.223h3.312a30.1,30.1,0,0,0-.79-3.223h3.03a1.593,1.593,0,0,0,.3-.06,17.994,17.994,0,0,1,1.7,3.283h3.418a20.939,20.939,0,0,0-39.851,0ZM32.644,8.058H30.729A20.209,20.209,0,0,0,29.358,5.61,17.763,17.763,0,0,1,32.644,8.058ZM20.515,3.223c2.5,0,4.808,1.86,6.547,4.835H13.968C15.707,5.083,18.015,3.223,20.515,3.223ZM11.668,5.61A20.423,20.423,0,0,0,10.3,8.058H8.385A17.848,17.848,0,0,1,11.668,5.61Z" transform="translate(-0.588)" fill="#333"/>
        <path id="Path_9307" data-name="Path 9307" d="M37.021,17a17.9,17.9,0,0,1-1.7,3.283,1.551,1.551,0,0,0-.3-.06H31.988A30.1,30.1,0,0,0,32.778,17H29.466a25.541,25.541,0,0,1-.906,3.223H12.468A25.815,25.815,0,0,1,11.562,17H8.251a30.1,30.1,0,0,0,.79,3.223H6.01a1.551,1.551,0,0,0-.3.06A17.9,17.9,0,0,1,4.008,17H.588a20.939,20.939,0,0,0,39.851,0ZM8.385,23.447H10.3a20.3,20.3,0,0,0,1.37,2.448A17.806,17.806,0,0,1,8.385,23.447Zm12.129,4.835c-2.5,0-4.808-1.86-6.547-4.835H27.059C25.322,26.422,23.014,28.282,20.515,28.282Zm8.845-2.387a20.087,20.087,0,0,0,1.372-2.448h1.915A17.871,17.871,0,0,1,29.359,25.895Z" transform="translate(-0.588 10.398)" fill="#333"/>
      </g>
    </g>
  </g>
</svg>
