<svg id="Group_163" data-name="Group 163" xmlns="http://www.w3.org/2000/svg" width="1920" height="156.1" viewBox="0 0 1920 156.1">
  <path id="Path_79" data-name="Path 79" d="M1920-5.931s-33.536,15.268-83.135,39.709c-21.614,10.651-83.424,34.208-118.933,32.67-147.159-9.6-106.432-75.266-271.416-70.189S1284.117,97.49,1107.584,97.49,1003.169,35.151,751.219,35.151,566.309,97.49,378.5,97.49c-36.124-3.5-163.06-29.341-228.541-58.015C63.076,1.428,0-5.931,0-5.931H1920Z" transform="translate(0 5.931)" opacity="0.42"/>
  <path id="Intersection_14" data-name="Intersection 14" d="M1920,98.949l-.061,0h.046Zm-1920,0,0,0H.01Zm.01,0c.7-.121,36.708-6.411,86.121-23.324,22.754-7.788,47.273-27.019,80.4-45.066,12.966-2.8,25.334-4.428,35.536-3.987,147.16,9.6,106.432,75.266,271.417,70.19,32.032-.986,57.75-5.405,79.687-11.887,31,9.316,69.4,14.364,121.085,11.219C787.34,89.21,840.917,45.253,910.458,6.178c62.964,17.806,72.574,51.69,258.322,51.69,210.676,0,198.307-43.587,298.4-57.868,68.67,25.7,122.713,52.988,162.408,65.236,89.6,27.645,286.368,33.594,290.346,33.711Z" transform="translate(1920 98.949) rotate(180)"/>
  <path id="Path_80" data-name="Path 80" d="M1920-48.1s-36.231,6.246-86.131,23.326-108.227,89.168-247.442,83.2S1445.095-57.371,1245.744-45.24,1031.961,94.244,789.023,106.95,380.922,13.545,290.407-14.384,0-48.1,0-48.1v0H1920Z" transform="translate(0 48.098)" opacity="0.42"/>
</svg>
