<svg id="Group_159" data-name="Group 159" xmlns="http://www.w3.org/2000/svg" width="1920" height="156.098" viewBox="0 0 1920 156.098">
  <path id="Path_24" data-name="Path 24" d="M1920,46.964s-36.818,19.564-152.48,14.555-145.186-47.11-310.17-42.034-173.233,62.339-349.766,62.339S1003.169,19.485,751.219,19.485,397.02,97,209.215,97C124.813,88.828,0,46.986,0,46.986V-21.106H1920Z" transform="translate(0 21.595)" opacity="0.42"/>
  <path id="Intersection_13" data-name="Intersection 13" d="M0,96.869V28.8S39.3,44.02,91.114,43.151c25.022-.42,49.956-14.026,84.727-27.313C273,24.982,309.357,60.994,462.65,56.278c14.178-.436,27.21-1.259,39.279-2.4,32.646,13.363,76.156,22.279,149.355,17.825C759.185,65.141,819.632,31.5,890.915,0c82.264,15.666,74.509,56.278,277.865,56.278,143.06,0,237.862-24.993,327.46-46.6,55.041,22.055,99.437,43.5,133.353,53.963C1720.109,91.574,1920,28.826,1920,28.826V96.869Z" transform="translate(1920 97.357) rotate(180)"/>
  <path id="Path_23" data-name="Path 23" d="M1920,20.459s-39.3-15.219-91.114-14.35-103.244,58.285-242.459,52.316-118.36-93-317.711-80.872-236.755,116.689-479.693,129.4S380.922,13.543,290.407-14.386,0,20.433,0,20.433V-48.1H1920Z" transform="translate(0 48.098)" opacity="0.42"/>
</svg>
