<svg xmlns="http://www.w3.org/2000/svg" width="1920" height="156.098" viewBox="0 0 1920 156.098">
  <g id="Group_158" data-name="Group 158" transform="translate(3374 -17395.32)">
    <path id="Path_24" data-name="Path 24" d="M0,28.93S36.818,9.366,152.48,14.375s145.186,47.11,310.17,42.034S635.883-5.931,812.416-5.931s104.416,62.339,356.365,62.339,354.2-77.515,542-77.515C1795.187-12.934,1920,28.907,1920,28.907V97H0Z" transform="translate(-3374 17453.93)" opacity="0.42"/>
    <path id="Intersection_13" data-name="Intersection 13" d="M0,155.609V87.541s39.3,15.219,91.114,14.35c25.022-.42,49.958-14.026,84.729-27.313C273,83.722,309.357,119.735,462.65,115.018c14.188-.437,27.212-1.259,39.288-2.4,32.648,13.367,76.135,22.281,149.346,17.826,107.9-6.566,168.348-40.206,239.631-71.707,82.265,15.666,74.509,56.278,277.865,56.278,143.06,0,237.862-24.993,327.46-46.6,55.041,22.055,99.437,43.5,133.353,53.963C1720.109,150.314,1920,87.566,1920,87.566v68.043Z" transform="translate(-3374 17395.32)"/>
    <path id="Path_23" data-name="Path 23" d="M0,39.443s39.3,15.219,91.114,14.35S194.358-4.492,333.573,1.477s118.36,93,317.711,80.872S888.039-34.34,1130.977-47.046s408.1,93.406,498.616,121.334S1920,39.469,1920,39.469V108H0Z" transform="translate(-3374 17443.418)" opacity="0.42"/>
  </g>
</svg>
