<svg xmlns="http://www.w3.org/2000/svg" width="1920" height="156.1" viewBox="0 0 1920 156.1">
  <g id="Group_161" data-name="Group 161" transform="translate(5129 -17849.32)">
    <path id="Path_79" data-name="Path 79" d="M0,97.49S33.536,82.222,83.135,57.781c21.613-10.651,83.424-34.208,118.933-32.67C349.228,34.709,308.5,100.377,473.484,95.3S635.883-5.931,812.416-5.931s104.416,62.339,356.365,62.339S1353.691-5.931,1541.5-5.931c36.124,3.5,163.06,29.341,228.541,58.015C1856.924,90.132,1920,97.49,1920,97.49H0Z" transform="translate(-5129 17907.93)" opacity="0.42"/>
    <path id="Intersection_14" data-name="Intersection 14" d="M1920,156.1l-.061,0h.046ZM0,156.1l0,0H.01Zm.01,0c.7-.121,36.708-6.411,86.121-23.324,22.754-7.788,47.274-27.019,80.4-45.067,12.966-2.8,25.333-4.428,35.535-3.986,147.16,9.6,106.432,75.266,271.417,70.189,32.032-.986,57.75-5.405,79.686-11.887,31,9.316,69.4,14.364,121.085,11.219,113.084-6.882,166.661-50.838,236.2-89.914,62.964,17.806,72.575,51.69,258.323,51.69,210.676,0,198.309-43.587,298.406-57.868,68.67,25.7,122.712,52.987,162.406,65.235,89.6,27.646,286.368,33.594,290.346,33.712Z" transform="translate(-5129 17849.32)"/>
    <path id="Path_80" data-name="Path 80" d="M0,108s36.231-6.246,86.131-23.326S194.358-4.492,333.573,1.477s141.332,115.8,340.683,103.667S888.039-34.34,1130.977-47.046s408.1,93.406,498.616,121.334S1920,108,1920,108v0H0Z" transform="translate(-5129 17897.418)" opacity="0.42"/>
  </g>
</svg>
