<svg xmlns="http://www.w3.org/2000/svg" width="50" height="50" viewBox="0 0 50 50">
  <g id="Group_5602" data-name="Group 5602" transform="translate(-7300 -22107)">
    <g id="Group_5593" data-name="Group 5593">
      <g id="Group_5591" data-name="Group 5591" transform="translate(54)">
        <circle id="Ellipse_207" data-name="Ellipse 207" cx="25" cy="25" r="25" transform="translate(7246 22107)" fill="#0274b3"/>
      </g>
      <g id="_39714" data-name="39714" transform="translate(7312.246 22096.76)">
        <g id="Group_5592" data-name="Group 5592" transform="translate(0 23.916)">
          <path id="Path_10295" data-name="Path 10295" d="M.811,194.662H4.057a.811.811,0,0,0,.811-.811v-14.19a.811.811,0,0,0-.811-.811H.811a.811.811,0,0,0-.811.811v14.19A.811.811,0,0,0,.811,194.662Z" transform="translate(0 -171.85)" fill="#fff"/>
          <path id="Path_10296" data-name="Path 10296" d="M.811,28.421H4.057a.811.811,0,0,0,.811-.811V24.727a.811.811,0,0,0-.811-.811H.811A.811.811,0,0,0,0,24.727V27.61A.811.811,0,0,0,.811,28.421Z" transform="translate(0 -23.916)" fill="#fff"/>
          <path id="Path_10297" data-name="Path 10297" d="M197.094,171.707a4.937,4.937,0,0,0-2.018-1.481,7.308,7.308,0,0,0-2.945-.58,7.213,7.213,0,0,0-5.543,2.5c-.3.331-.521.259-.521-.189v-1.081a.811.811,0,0,0-.811-.811h-2.9a.811.811,0,0,0-.811.811v14.19a.811.811,0,0,0,.811.811H185.6a.811.811,0,0,0,.811-.811v-4.935a15.877,15.877,0,0,1,.372-4.227,3.491,3.491,0,0,1,1.377-1.836,3.9,3.9,0,0,1,2.27-.693,2.9,2.9,0,0,1,1.689.485,2.7,2.7,0,0,1,1.014,1.36,14.509,14.509,0,0,1,.312,3.855v5.992a.811.811,0,0,0,.811.811H197.5a.811.811,0,0,0,.811-.811v-8.036a15.221,15.221,0,0,0-.268-3.274A5.363,5.363,0,0,0,197.094,171.707Z" transform="translate(-173.342 -163.061)" fill="#fff"/>
        </g>
      </g>
    </g>
  </g>
</svg>
